<mxfile host="app.diagrams.net" modified="2022-10-21T19:52:54.327Z" agent="5.0 (Windows NT 10.0; Win64; x64) AppleWebKit/537.36 (KHTML, like Gecko) Chrome/106.0.0.0 Safari/537.36" etag="_9KEMNBNkVYUsSsDwXoi" version="20.5.0" type="github">
  <diagram id="2Gx_xTBYdKdBT45XxEVR" name="Página-1">
    <mxGraphModel dx="536" dy="491" grid="1" gridSize="10" guides="1" tooltips="1" connect="1" arrows="1" fold="1" page="1" pageScale="1" pageWidth="827" pageHeight="1169" math="0" shadow="0">
      <root>
        <mxCell id="0" />
        <mxCell id="1" parent="0" />
        <mxCell id="Q8F7fOBmTBRLwdDu__Ra-2" value="GLPI" style="swimlane;html=1;childLayout=stackLayout;resizeParent=1;resizeParentMax=0;horizontal=0;startSize=20;horizontalStack=0;" parent="1" vertex="1">
          <mxGeometry x="120" y="120" width="530" height="710" as="geometry" />
        </mxCell>
        <mxCell id="Q8F7fOBmTBRLwdDu__Ra-3" value="Elo Estratégico" style="swimlane;html=1;startSize=20;horizontal=0;" parent="Q8F7fOBmTBRLwdDu__Ra-2" vertex="1">
          <mxGeometry x="20" width="510" height="120" as="geometry" />
        </mxCell>
        <mxCell id="Q8F7fOBmTBRLwdDu__Ra-4" value="" style="edgeStyle=orthogonalEdgeStyle;rounded=0;orthogonalLoop=1;jettySize=auto;html=1;" parent="Q8F7fOBmTBRLwdDu__Ra-3" source="Q8F7fOBmTBRLwdDu__Ra-5" target="Q8F7fOBmTBRLwdDu__Ra-6" edge="1">
          <mxGeometry relative="1" as="geometry" />
        </mxCell>
        <mxCell id="Q8F7fOBmTBRLwdDu__Ra-5" value="" style="ellipse;whiteSpace=wrap;html=1;" parent="Q8F7fOBmTBRLwdDu__Ra-3" vertex="1">
          <mxGeometry x="40" y="40" width="40" height="40" as="geometry" />
        </mxCell>
        <mxCell id="Q8F7fOBmTBRLwdDu__Ra-6" value="" style="rounded=0;whiteSpace=wrap;html=1;fontFamily=Helvetica;fontSize=12;fontColor=#000000;align=center;" parent="Q8F7fOBmTBRLwdDu__Ra-3" vertex="1">
          <mxGeometry x="120" y="30" width="80" height="60" as="geometry" />
        </mxCell>
        <mxCell id="Q8F7fOBmTBRLwdDu__Ra-7" value="BP" style="swimlane;html=1;startSize=20;horizontal=0;" parent="Q8F7fOBmTBRLwdDu__Ra-2" vertex="1">
          <mxGeometry x="20" y="120" width="510" height="140" as="geometry" />
        </mxCell>
        <mxCell id="Q8F7fOBmTBRLwdDu__Ra-8" style="edgeStyle=none;rounded=0;orthogonalLoop=1;jettySize=auto;html=1;entryX=0;entryY=0.5;entryDx=0;entryDy=0;fontSize=9;startArrow=none;startFill=0;endArrow=none;endFill=0;" parent="Q8F7fOBmTBRLwdDu__Ra-7" source="Q8F7fOBmTBRLwdDu__Ra-9" target="Q8F7fOBmTBRLwdDu__Ra-12" edge="1">
          <mxGeometry relative="1" as="geometry" />
        </mxCell>
        <mxCell id="Q8F7fOBmTBRLwdDu__Ra-9" value="" style="ellipse;whiteSpace=wrap;html=1;" parent="Q8F7fOBmTBRLwdDu__Ra-7" vertex="1">
          <mxGeometry x="40" y="50" width="40" height="40" as="geometry" />
        </mxCell>
        <mxCell id="Q8F7fOBmTBRLwdDu__Ra-10" value="&lt;font style=&quot;font-size: 9px;&quot;&gt;Processo de contratação&lt;/font&gt;" style="rounded=1;whiteSpace=wrap;html=1;fontSize=6;arcSize=50;" parent="Q8F7fOBmTBRLwdDu__Ra-7" vertex="1">
          <mxGeometry x="274" y="40" width="56" height="60" as="geometry" />
        </mxCell>
        <mxCell id="Q8F7fOBmTBRLwdDu__Ra-11" style="edgeStyle=none;rounded=0;orthogonalLoop=1;jettySize=auto;html=1;exitX=1;exitY=0.5;exitDx=0;exitDy=0;entryX=0;entryY=0.5;entryDx=0;entryDy=0;fontSize=9;startArrow=none;startFill=0;endArrow=classicThin;endFill=1;" parent="Q8F7fOBmTBRLwdDu__Ra-7" source="Q8F7fOBmTBRLwdDu__Ra-12" target="Q8F7fOBmTBRLwdDu__Ra-10" edge="1">
          <mxGeometry relative="1" as="geometry">
            <Array as="points">
              <mxPoint x="180" y="70" />
            </Array>
          </mxGeometry>
        </mxCell>
        <mxCell id="Q8F7fOBmTBRLwdDu__Ra-12" value="Recrutamento" style="rounded=0;whiteSpace=wrap;html=1;fontFamily=Helvetica;fontSize=12;fontColor=#000000;align=center;" parent="Q8F7fOBmTBRLwdDu__Ra-7" vertex="1">
          <mxGeometry x="100" y="40" width="80" height="60" as="geometry" />
        </mxCell>
        <mxCell id="Q8F7fOBmTBRLwdDu__Ra-13" value="&lt;ul&gt;&lt;li&gt;&lt;font style=&quot;font-size: 9px;&quot;&gt;Seleção&lt;/font&gt;&lt;/li&gt;&lt;li&gt;&lt;font style=&quot;font-size: 9px;&quot;&gt;Entrevista&lt;/font&gt;&lt;/li&gt;&lt;li&gt;&lt;font style=&quot;font-size: 9px;&quot;&gt;Mapeamento comportamental&lt;/font&gt;&lt;/li&gt;&lt;/ul&gt;" style="text;html=1;strokeColor=none;fillColor=none;align=left;verticalAlign=middle;whiteSpace=wrap;rounded=0;dashed=1;fontSize=6;" parent="Q8F7fOBmTBRLwdDu__Ra-7" vertex="1">
          <mxGeometry x="160" y="20" width="60" height="30" as="geometry" />
        </mxCell>
        <mxCell id="Q8F7fOBmTBRLwdDu__Ra-14" value="" style="group" parent="Q8F7fOBmTBRLwdDu__Ra-7" vertex="1" connectable="0">
          <mxGeometry x="370" y="30" width="80" height="100" as="geometry" />
        </mxCell>
        <mxCell id="Q8F7fOBmTBRLwdDu__Ra-15" value="&lt;font style=&quot;font-size: 9px;&quot;&gt;Acompanhamento&lt;/font&gt;" style="rounded=0;whiteSpace=wrap;html=1;fontFamily=Helvetica;fontSize=12;fontColor=#000000;align=center;" parent="Q8F7fOBmTBRLwdDu__Ra-14" vertex="1">
          <mxGeometry width="80" height="60" as="geometry" />
        </mxCell>
        <mxCell id="Q8F7fOBmTBRLwdDu__Ra-16" style="edgeStyle=none;rounded=0;orthogonalLoop=1;jettySize=auto;html=1;entryX=0.25;entryY=1;entryDx=0;entryDy=0;fontSize=9;startArrow=none;startFill=0;endArrow=none;endFill=0;exitX=0.5;exitY=0.667;exitDx=0;exitDy=0;exitPerimeter=0;" parent="Q8F7fOBmTBRLwdDu__Ra-14" source="Q8F7fOBmTBRLwdDu__Ra-17" target="Q8F7fOBmTBRLwdDu__Ra-15" edge="1">
          <mxGeometry relative="1" as="geometry">
            <Array as="points">
              <mxPoint x="20" y="90" />
            </Array>
          </mxGeometry>
        </mxCell>
        <mxCell id="Q8F7fOBmTBRLwdDu__Ra-17" value="&lt;ul&gt;&lt;li&gt;&lt;font size=&quot;1&quot;&gt;Devolutiva&lt;/font&gt;&lt;/li&gt;&lt;li&gt;&lt;font size=&quot;1&quot;&gt;Encaminhamento&lt;/font&gt;&lt;/li&gt;&lt;/ul&gt;" style="text;html=1;strokeColor=none;fillColor=none;align=left;verticalAlign=middle;whiteSpace=wrap;rounded=0;dashed=1;fontSize=6;" parent="Q8F7fOBmTBRLwdDu__Ra-14" vertex="1">
          <mxGeometry y="70" width="60" height="30" as="geometry" />
        </mxCell>
        <mxCell id="Q8F7fOBmTBRLwdDu__Ra-18" value="ADM/FIN" style="swimlane;html=1;startSize=20;horizontal=0;" parent="Q8F7fOBmTBRLwdDu__Ra-2" vertex="1">
          <mxGeometry x="20" y="260" width="510" height="120" as="geometry" />
        </mxCell>
        <mxCell id="Q8F7fOBmTBRLwdDu__Ra-19" value="" style="edgeStyle=orthogonalEdgeStyle;rounded=0;orthogonalLoop=1;jettySize=auto;html=1;" parent="Q8F7fOBmTBRLwdDu__Ra-18" source="Q8F7fOBmTBRLwdDu__Ra-20" target="Q8F7fOBmTBRLwdDu__Ra-21" edge="1">
          <mxGeometry relative="1" as="geometry" />
        </mxCell>
        <mxCell id="Q8F7fOBmTBRLwdDu__Ra-20" value="&lt;font style=&quot;font-size: 8px;&quot;&gt;Chamado&lt;/font&gt;" style="ellipse;whiteSpace=wrap;html=1;" parent="Q8F7fOBmTBRLwdDu__Ra-18" vertex="1">
          <mxGeometry x="40" y="40" width="40" height="40" as="geometry" />
        </mxCell>
        <mxCell id="Q8F7fOBmTBRLwdDu__Ra-21" value="" style="rounded=0;whiteSpace=wrap;html=1;fontFamily=Helvetica;fontSize=12;fontColor=#000000;align=center;" parent="Q8F7fOBmTBRLwdDu__Ra-18" vertex="1">
          <mxGeometry x="120" y="30" width="80" height="60" as="geometry" />
        </mxCell>
        <mxCell id="Q8F7fOBmTBRLwdDu__Ra-22" value="&lt;font style=&quot;font-size: 10px;&quot;&gt;Encaminhamento&lt;/font&gt;" style="rounded=0;whiteSpace=wrap;html=1;fontFamily=Helvetica;fontSize=12;fontColor=#000000;align=center;" parent="Q8F7fOBmTBRLwdDu__Ra-18" vertex="1">
          <mxGeometry x="120" y="30" width="80" height="60" as="geometry" />
        </mxCell>
        <mxCell id="Q8F7fOBmTBRLwdDu__Ra-23" value="&lt;ul style=&quot;font-size: 8px;&quot;&gt;&lt;li style=&quot;&quot;&gt;&lt;font style=&quot;font-size: 8px;&quot;&gt;Entra&amp;nbsp;&lt;/font&gt;&lt;font style=&quot;font-size: 8px;&quot;&gt;&amp;nbsp;&lt;/font&gt;&lt;font style=&quot;font-size: 8px;&quot;&gt;em contato com colega&lt;/font&gt;&lt;/li&gt;&lt;li style=&quot;&quot;&gt;Exame médico&lt;/li&gt;&lt;li style=&quot;&quot;&gt;Entrega de Documentos&lt;/li&gt;&lt;li style=&quot;&quot;&gt;Assinatura&lt;/li&gt;&lt;li style=&quot;&quot;&gt;Entrega do Flash e contrato&lt;/li&gt;&lt;/ul&gt;" style="text;html=1;strokeColor=none;fillColor=none;align=left;verticalAlign=middle;whiteSpace=wrap;rounded=0;dashed=1;fontSize=6;" parent="Q8F7fOBmTBRLwdDu__Ra-18" vertex="1">
          <mxGeometry x="179" width="190" height="60" as="geometry" />
        </mxCell>
        <mxCell id="Q8F7fOBmTBRLwdDu__Ra-24" value="Infraestrutura" style="swimlane;html=1;startSize=20;horizontal=0;" parent="Q8F7fOBmTBRLwdDu__Ra-2" vertex="1">
          <mxGeometry x="20" y="380" width="510" height="90" as="geometry" />
        </mxCell>
        <mxCell id="Q8F7fOBmTBRLwdDu__Ra-25" value="" style="edgeStyle=orthogonalEdgeStyle;rounded=0;orthogonalLoop=1;jettySize=auto;html=1;" parent="Q8F7fOBmTBRLwdDu__Ra-24" source="Q8F7fOBmTBRLwdDu__Ra-26" target="Q8F7fOBmTBRLwdDu__Ra-28" edge="1">
          <mxGeometry relative="1" as="geometry" />
        </mxCell>
        <mxCell id="Q8F7fOBmTBRLwdDu__Ra-26" value="&lt;font style=&quot;font-size: 8px;&quot;&gt;Onboard&lt;/font&gt;" style="ellipse;whiteSpace=wrap;html=1;" parent="Q8F7fOBmTBRLwdDu__Ra-24" vertex="1">
          <mxGeometry x="40" y="40" width="40" height="40" as="geometry" />
        </mxCell>
        <mxCell id="Q8F7fOBmTBRLwdDu__Ra-27" style="edgeStyle=orthogonalEdgeStyle;rounded=0;orthogonalLoop=1;jettySize=auto;html=1;entryX=0;entryY=0.5;entryDx=0;entryDy=0;fontSize=6;" parent="Q8F7fOBmTBRLwdDu__Ra-24" source="Q8F7fOBmTBRLwdDu__Ra-28" target="Q8F7fOBmTBRLwdDu__Ra-29" edge="1">
          <mxGeometry relative="1" as="geometry" />
        </mxCell>
        <mxCell id="Q8F7fOBmTBRLwdDu__Ra-28" value="&lt;span style=&quot;font-size: 6px;&quot;&gt;Mensagem automática:&lt;/span&gt;&lt;br&gt;&lt;span style=&quot;font-size: 6px;&quot;&gt;Onboarding&lt;/span&gt;" style="rounded=0;whiteSpace=wrap;html=1;fontFamily=Helvetica;fontSize=12;fontColor=#000000;align=center;" parent="Q8F7fOBmTBRLwdDu__Ra-24" vertex="1">
          <mxGeometry x="120" y="30" width="40" height="60" as="geometry" />
        </mxCell>
        <mxCell id="Q8F7fOBmTBRLwdDu__Ra-29" value="Solucionado" style="ellipse;whiteSpace=wrap;html=1;aspect=fixed;fontSize=8;" parent="Q8F7fOBmTBRLwdDu__Ra-24" vertex="1">
          <mxGeometry x="370" y="37.5" width="45" height="45" as="geometry" />
        </mxCell>
        <mxCell id="Q8F7fOBmTBRLwdDu__Ra-30" style="edgeStyle=none;rounded=0;orthogonalLoop=1;jettySize=auto;html=1;fontSize=6;endArrow=none;endFill=0;dashed=1;" parent="Q8F7fOBmTBRLwdDu__Ra-24" source="Q8F7fOBmTBRLwdDu__Ra-32" target="Q8F7fOBmTBRLwdDu__Ra-33" edge="1">
          <mxGeometry relative="1" as="geometry" />
        </mxCell>
        <mxCell id="Q8F7fOBmTBRLwdDu__Ra-31" style="edgeStyle=none;rounded=0;orthogonalLoop=1;jettySize=auto;html=1;exitX=0.75;exitY=1;exitDx=0;exitDy=0;fontSize=6;endArrow=none;endFill=0;" parent="Q8F7fOBmTBRLwdDu__Ra-24" source="Q8F7fOBmTBRLwdDu__Ra-32" edge="1">
          <mxGeometry relative="1" as="geometry">
            <mxPoint x="242" y="30" as="targetPoint" />
          </mxGeometry>
        </mxCell>
        <mxCell id="Q8F7fOBmTBRLwdDu__Ra-32" value="Criação dos Acessos" style="rounded=1;whiteSpace=wrap;html=1;fontSize=6;" parent="Q8F7fOBmTBRLwdDu__Ra-24" vertex="1">
          <mxGeometry x="170" y="10" width="60" height="20" as="geometry" />
        </mxCell>
        <mxCell id="Q8F7fOBmTBRLwdDu__Ra-33" value="Evidências" style="rounded=1;whiteSpace=wrap;html=1;fontSize=6;" parent="Q8F7fOBmTBRLwdDu__Ra-24" vertex="1">
          <mxGeometry x="170" y="85" width="60" height="20" as="geometry" />
        </mxCell>
        <mxCell id="Q8F7fOBmTBRLwdDu__Ra-34" value="&lt;div style=&quot;text-align: left;&quot;&gt;&lt;ul&gt;&lt;li&gt;&lt;span style=&quot;background-color: initial;&quot;&gt;E-mail&lt;/span&gt;&lt;/li&gt;&lt;li&gt;&lt;span style=&quot;background-color: initial;&quot;&gt;BaseCamp&lt;/span&gt;&lt;/li&gt;&lt;li&gt;&lt;span style=&quot;background-color: initial;&quot;&gt;VPN&lt;/span&gt;&lt;/li&gt;&lt;li&gt;&lt;span style=&quot;background-color: initial;&quot;&gt;GLPI&lt;/span&gt;&lt;/li&gt;&lt;li&gt;&lt;span style=&quot;background-color: initial;&quot;&gt;BackOffice&lt;/span&gt;&lt;/li&gt;&lt;/ul&gt;&lt;/div&gt;" style="text;html=1;strokeColor=none;fillColor=none;align=center;verticalAlign=middle;whiteSpace=wrap;rounded=0;fontSize=6;" parent="Q8F7fOBmTBRLwdDu__Ra-24" vertex="1">
          <mxGeometry x="234" y="20" width="40" height="30" as="geometry" />
        </mxCell>
        <mxCell id="Q8F7fOBmTBRLwdDu__Ra-35" value="Facilities" style="swimlane;html=1;startSize=20;horizontal=0;" parent="Q8F7fOBmTBRLwdDu__Ra-2" vertex="1">
          <mxGeometry x="20" y="470" width="510" height="120" as="geometry" />
        </mxCell>
        <mxCell id="Q8F7fOBmTBRLwdDu__Ra-36" value="" style="edgeStyle=orthogonalEdgeStyle;rounded=0;orthogonalLoop=1;jettySize=auto;html=1;endArrow=classic;endFill=1;" parent="Q8F7fOBmTBRLwdDu__Ra-35" target="Q8F7fOBmTBRLwdDu__Ra-37" edge="1">
          <mxGeometry relative="1" as="geometry">
            <mxPoint x="200" y="60" as="sourcePoint" />
          </mxGeometry>
        </mxCell>
        <mxCell id="Q8F7fOBmTBRLwdDu__Ra-37" value="" style="rhombus;whiteSpace=wrap;html=1;fontFamily=Helvetica;fontSize=12;fontColor=#000000;align=center;" parent="Q8F7fOBmTBRLwdDu__Ra-35" vertex="1">
          <mxGeometry x="260" y="40" width="40" height="40" as="geometry" />
        </mxCell>
        <mxCell id="Q8F7fOBmTBRLwdDu__Ra-38" value="" style="rounded=0;whiteSpace=wrap;html=1;fontFamily=Helvetica;fontSize=12;fontColor=#000000;align=center;" parent="Q8F7fOBmTBRLwdDu__Ra-35" vertex="1">
          <mxGeometry x="60" y="20" width="80" height="60" as="geometry" />
        </mxCell>
        <mxCell id="Q8F7fOBmTBRLwdDu__Ra-39" value="Time Onboard" style="swimlane;html=1;startSize=20;horizontal=0;" parent="Q8F7fOBmTBRLwdDu__Ra-2" vertex="1">
          <mxGeometry x="20" y="590" width="510" height="120" as="geometry" />
        </mxCell>
        <mxCell id="Q8F7fOBmTBRLwdDu__Ra-40" value="" style="rounded=0;whiteSpace=wrap;html=1;fontFamily=Helvetica;fontSize=12;fontColor=#000000;align=center;" parent="Q8F7fOBmTBRLwdDu__Ra-39" vertex="1">
          <mxGeometry x="240" y="20" width="80" height="60" as="geometry" />
        </mxCell>
        <mxCell id="Q8F7fOBmTBRLwdDu__Ra-41" value="" style="rhombus;whiteSpace=wrap;html=1;fontFamily=Helvetica;fontSize=12;fontColor=#000000;align=center;" parent="Q8F7fOBmTBRLwdDu__Ra-39" vertex="1">
          <mxGeometry x="370" y="30" width="40" height="40" as="geometry" />
        </mxCell>
        <mxCell id="Q8F7fOBmTBRLwdDu__Ra-42" style="edgeStyle=orthogonalEdgeStyle;rounded=0;orthogonalLoop=1;jettySize=auto;html=1;exitX=0.5;exitY=1;exitDx=0;exitDy=0;entryX=0.5;entryY=0;entryDx=0;entryDy=0;fontSize=8;" parent="Q8F7fOBmTBRLwdDu__Ra-2" source="Q8F7fOBmTBRLwdDu__Ra-6" target="Q8F7fOBmTBRLwdDu__Ra-9" edge="1">
          <mxGeometry relative="1" as="geometry" />
        </mxCell>
        <mxCell id="Q8F7fOBmTBRLwdDu__Ra-43" style="edgeStyle=none;rounded=0;orthogonalLoop=1;jettySize=auto;html=1;exitX=0.5;exitY=1;exitDx=0;exitDy=0;entryX=0.508;entryY=0.09;entryDx=0;entryDy=0;entryPerimeter=0;dashed=1;fontSize=6;endArrow=none;endFill=0;" parent="Q8F7fOBmTBRLwdDu__Ra-2" source="Q8F7fOBmTBRLwdDu__Ra-29" target="Q8F7fOBmTBRLwdDu__Ra-41" edge="1">
          <mxGeometry relative="1" as="geometry" />
        </mxCell>
        <mxCell id="Q8F7fOBmTBRLwdDu__Ra-44" style="edgeStyle=none;rounded=0;orthogonalLoop=1;jettySize=auto;html=1;entryX=0.5;entryY=0;entryDx=0;entryDy=0;fontSize=6;endArrow=classic;endFill=1;dashed=1;startArrow=none;startFill=0;" parent="Q8F7fOBmTBRLwdDu__Ra-2" source="Q8F7fOBmTBRLwdDu__Ra-10" target="Q8F7fOBmTBRLwdDu__Ra-20" edge="1">
          <mxGeometry relative="1" as="geometry">
            <Array as="points">
              <mxPoint x="324" y="230" />
              <mxPoint x="80" y="230" />
            </Array>
          </mxGeometry>
        </mxCell>
        <mxCell id="Q8F7fOBmTBRLwdDu__Ra-45" style="edgeStyle=none;rounded=0;orthogonalLoop=1;jettySize=auto;html=1;fontSize=6;endArrow=none;endFill=0;" parent="1" source="Q8F7fOBmTBRLwdDu__Ra-32" edge="1">
          <mxGeometry relative="1" as="geometry">
            <mxPoint x="357.9999999999999" y="510" as="targetPoint" />
          </mxGeometry>
        </mxCell>
      </root>
    </mxGraphModel>
  </diagram>
</mxfile>
